<svg width="21" height="25" viewBox="0 0 21 25" fill="none" xmlns="http://www.w3.org/2000/svg">
<path d="M6.63116 0.0025C5.17238 1.755 4.35337 3.8625 5.01555 6.15C5.51342 7.8675 7.17136 9.8375 8.48825 11.02C8.80689 11.305 10.1586 12.435 10.5071 12.4125C10.8606 12.395 11.9186 11.525 12.2348 11.2575C13.6264 10.0825 15.4411 7.95 16.0012 6.2C16.7381 3.905 15.8693 1.755 14.4006 0C17.6144 1.1425 19.6557 4.3975 20.4996 7.5825C22.2446 14.1475 19.3071 21.505 13.5367 25C13.4272 24.94 13.5616 24.845 13.599 24.785C15.003 22.625 15.8344 21.0775 16.4269 18.5075C16.885 16.5125 17.2161 14.11 16.529 12.1525C16.3846 12.0425 15.2121 13.2925 15.0503 13.465C13.2903 15.34 11.3535 17.5075 12.1327 20.2625C12.1999 20.5025 12.3817 20.7475 12.3667 20.995C10.5121 20.495 9.15043 19.19 8.2642 17.5175C7.85345 16.7475 7.65181 15.8825 7.21368 15.1225C6.75065 14.32 5.62296 12.9825 4.9085 12.395C4.79399 12.3 4.58239 12.085 4.44299 12.24C4.20151 12.505 4.07953 14.255 4.08202 14.6775C4.09198 17.465 5.01057 21.0275 6.43699 23.4325L7.45266 24.9975C1.1769 21.365 -1.60624 13.005 0.937921 6.2025C1.91625 3.585 3.91026 0.91 6.62867 0.005H6.63116V0.0025Z" fill="white" fill-opacity="0.8"/>
</svg>
