<svg width="27" height="25" viewBox="0 0 27 25" fill="none" xmlns="http://www.w3.org/2000/svg">
<path d="M11.3715 13.206C12.6916 13.9834 13.3516 14.372 14.0768 14.3728C14.8015 14.3736 15.4624 13.9861 16.7836 13.2111L25.2067 8.27096C25.3936 8.16145 25.5489 8.00357 25.6569 7.81325C25.7649 7.62293 25.8217 7.40691 25.8217 7.187C25.8217 6.96709 25.7649 6.75107 25.6569 6.56075C25.5489 6.37043 25.3936 6.21254 25.2067 6.10303L16.781 1.1617C15.4605 0.386713 14.8004 0 14.0764 0C13.3524 0.000390619 12.6927 0.387884 11.3734 1.16326L4.12958 5.41905C4.07598 5.4507 4.04879 5.46632 4.02391 5.48155C2.80749 6.20797 1.79702 7.24449 1.09159 8.48944C0.386165 9.73439 0.0100033 11.145 0 12.583V12.8318C0.0101604 14.2892 0.396411 15.7181 1.11988 16.9748C1.84334 18.2315 2.8785 19.2715 4.12116 19.9903L8.65887 22.6633C11.3029 24.2207 12.6246 24.9996 14.0764 25C15.5282 25.0008 16.8506 24.2227 19.4958 22.6672L24.2855 19.8501C25.6102 19.0708 26.2726 18.6813 26.6363 18.0396C27 17.3974 27 16.6177 27 15.058V12.0447C27.0001 11.8355 26.9462 11.6299 26.8437 11.4487C26.7413 11.2674 26.5939 11.1168 26.4164 11.012C26.2389 10.9073 26.0375 10.852 25.8324 10.8518C25.6273 10.8516 25.4258 10.9064 25.248 11.0108L15.4264 16.7712C14.7675 17.1575 14.4378 17.3509 14.076 17.3509C13.7146 17.3509 13.3849 17.1579 12.7257 16.772L6.07798 12.8787C5.74488 12.6834 5.57872 12.5861 5.4451 12.5686C5.29679 12.549 5.14629 12.58 5.01707 12.6568C4.88784 12.7336 4.78715 12.8519 4.73068 12.9932C4.67975 13.1205 4.6809 13.3162 4.68282 13.708C4.68435 13.9963 4.68511 14.1408 4.71153 14.2732C4.77071 14.5703 4.92393 14.8393 5.14762 15.0388C5.24716 15.1279 5.36968 15.1998 5.61471 15.3439L12.7222 19.5298C13.383 19.9188 13.7134 20.1134 14.0764 20.1137C14.439 20.1137 14.7694 19.9192 15.431 19.5306L24.1427 14.4068C24.3686 14.274 24.4811 14.2076 24.5657 14.2576C24.6507 14.3076 24.6507 14.4404 24.6507 14.7068V16.0732C24.6507 16.463 24.6507 16.6579 24.5596 16.8185C24.4689 16.979 24.3031 17.0763 23.9719 17.2712L16.7867 21.4965C15.4639 22.2747 14.8023 22.6637 14.0764 22.6633C13.3505 22.6629 12.6893 22.2735 11.3673 21.4942L4.64453 17.5321L4.60242 17.5071C3.90973 17.0941 3.33449 16.504 2.93342 15.7951C2.53234 15.0861 2.31926 14.2828 2.31518 13.4642V12.1596C2.31518 11.7078 2.43155 11.2639 2.65262 10.8725C2.87369 10.481 3.19171 10.1557 3.57481 9.92914C3.9133 9.72891 4.29755 9.62327 4.68883 9.62285C5.0801 9.62244 5.46456 9.72728 5.80346 9.9268L11.3715 13.206Z" fill="white" fill-opacity="0.8"/>
</svg>
