<svg width="32" height="24" viewBox="0 0 32 24" fill="none" xmlns="http://www.w3.org/2000/svg">
<path d="M20.312 0C20.012 0.5 19.712 1.1 19.512 1.7C17.112 1.3 14.712 1.3 12.312 1.7C12.012 1.1 11.712 0.5 11.412 0C9.11201 0.4 6.91202 1.1 4.91202 2C0.712016 8.1 -0.387985 14.1 0.112015 20C2.51202 21.8 5.21202 23.2 8.11202 24C8.81202 23.1 9.31202 22.2 9.81202 21.2C8.91202 20.9 8.01202 20.4 7.11202 19.9C7.31202 19.7 7.51202 19.6 7.81202 19.4C12.912 21.8 18.712 21.8 23.812 19.4C24.012 19.6 24.212 19.7 24.512 19.9C23.612 20.4 22.712 20.8 21.812 21.2C22.312 22.2 22.912 23.1 23.512 24C26.412 23.1 29.112 21.8 31.512 20C32.212 13.2 30.412 7.3 26.812 2C24.712 1.1 22.512 0.4 20.312 0ZM10.612 16.4C9.01202 16.4 7.71202 15 7.71202 13.2C7.71202 11.4 8.91201 10 10.512 10C12.112 10 13.412 11.4 13.412 13.2C13.412 14.9 12.112 16.4 10.612 16.4ZM21.112 16.4C19.512 16.4 18.312 15 18.312 13.2C18.312 11.4 19.512 10 21.112 10C22.712 10 24.012 11.4 23.912 13.2C23.912 14.9 22.612 16.4 21.112 16.4Z" fill="white" fill-opacity="0.8"/>
</svg>
