<svg width="192" height="115" viewBox="0 0 192 115" fill="none" xmlns="http://www.w3.org/2000/svg">
<path d="M104.892 56.3947C112.507 59.0731 117.343 66.703 119.343 74.1691C123.478 89.559 116.518 106.807 102.845 115C102.585 114.86 102.904 114.637 102.992 114.496C106.319 109.433 108.289 105.805 109.693 99.7805C110.778 95.1038 111.563 89.4718 109.935 84.883C109.593 84.6252 106.814 87.5547 106.431 87.9592C102.26 92.3546 97.6715 97.4364 99.5177 103.895C99.6771 104.457 100.108 105.031 100.072 105.612C95.6779 104.439 92.4516 101.38 90.3517 97.4592C89.3785 95.6542 88.9006 93.6265 87.8625 91.8449C86.7653 89.9637 84.0925 86.8286 82.3996 85.4514C82.1282 85.2286 81.6273 84.7248 81.297 85.0881C80.725 85.7098 80.4357 89.8116 80.4416 90.802C80.4652 97.3364 82.6418 105.688 86.0216 111.325L88.4289 114.994C73.5585 106.479 66.9632 86.8813 72.9914 70.9348C75.3095 64.7988 80.0346 58.5281 86.4757 56.4064H86.4767C83.0234 60.5135 81.0852 65.452 82.6535 70.8117C83.8333 74.8378 87.7617 79.4557 90.882 82.2277C91.637 82.8958 94.8404 85.5451 95.6662 85.4924C96.5039 85.4512 99.0108 83.4114 99.7599 82.7844C103.057 80.0299 107.358 75.0312 108.685 70.9289C110.431 65.549 108.372 60.5088 104.892 56.3947ZM86.4816 56.4064H86.4767C86.4784 56.4045 86.48 56.4025 86.4816 56.4006V56.4064ZM21.422 7.85957C22.7774 7.31429 32.1988 4.34643 32.7892 4.86641L32.7941 4.86152C33.0719 5.10543 31.4505 6.51738 31.2248 6.85371C29.1733 9.93897 29.931 21.2886 30.0275 25.4602C30.124 29.6314 29.9247 40.9813 32.006 43.9562C32.2495 44.3059 33.333 45.1018 33.2531 45.4631L20.8507 48.802C20.9656 47.6953 22.0841 47.1544 22.5734 46.0432C23.8989 43.0222 23.0141 32.476 22.9084 28.6818C22.8486 26.5766 23.0644 24.4386 22.8048 22.3449C20.5535 27.7931 19.6078 33.7478 17.6965 39.3156C17.4346 40.0794 17.2894 40.9213 16.6027 41.4367C15.9665 40.7581 15.6563 39.8796 15.3371 39.0285C13.8622 35.0919 12.9357 30.7496 11.4884 26.7785L10.9767 26.4865C10.9193 28.4375 11.0452 30.4092 10.9855 32.3625C10.8408 36.9871 10.2326 43.2523 10.7472 47.7687C10.8093 48.3048 10.9079 48.6937 11.2043 49.1516C11.5353 49.6646 13.5527 50.9453 13.2716 51.3322L0.285319 56.3947C-0.144113 56.0612 0.00440793 56.132 0.126139 55.7873C0.459247 54.8486 1.42019 53.7964 1.88883 52.715C4.75789 46.1141 4.14905 35.2549 4.29606 27.9777C4.36728 24.4184 4.93964 20.5134 4.53532 16.9426C4.3469 15.2841 3.75587 14.8058 2.47184 13.9523L11.0129 10.7795L12.3117 10.6525C13.5246 13.4088 14.4569 16.3354 15.7502 19.0549C15.9431 19.4598 16.5777 21.0794 17.0509 20.9689C17.7249 20.8075 20.7605 9.36438 21.422 7.85957ZM169.487 6.01192C175.862 7.60405 182.318 9.66342 188.096 12.7971V22.3449L188.091 22.3479C185.801 19.9781 183.474 16.1419 180.17 14.9777C179.743 14.8282 179.405 14.5572 179.168 15.1369L178.934 25.4055C179.224 26.466 184.43 26.9165 185.461 27.632L186.237 34.8732C186.177 37.0881 182.925 33.7527 182.013 33.1564C181.657 32.9241 179.086 31.3505 178.906 31.5529L178.665 44.2854C180.983 45.2586 184.567 46.7933 186.83 45.1252C187.285 44.7887 189.233 42.3371 189.701 42.8244C190.094 47.0371 189.736 51.3466 191.3 55.3684C191.126 55.5638 191.075 55.7045 190.777 55.677C190.349 55.6376 186.374 53.5195 185.493 53.1369C182.121 51.6782 178.672 50.3386 175.176 49.2043C174.361 48.9398 169.07 47.6475 169.012 47.2951C169.17 46.3565 170.025 45.6592 170.445 44.8195C174.121 37.4502 170.907 21.4868 172.01 13.0314C171.753 11.8765 171.598 10.5769 171.203 9.46797C171.031 8.98482 169.345 6.14319 169.487 6.01192ZM148.12 5.78438C148.545 5.40705 156.556 7.44345 157.714 7.79317C161.934 9.07239 165.87 10.9177 167.843 15.135C170.133 20.0265 169.74 28.2835 163.967 30.5129C161.392 31.5067 159.239 31.0166 156.618 30.6301V38.3381C156.619 38.5988 157.325 40.494 157.495 40.9104C157.95 42.0239 158.631 43.156 159.357 44.1154L159.026 44.6652L147.889 41.3244C149.538 39.3366 150.034 38.2063 150.197 35.5881C150.678 27.8715 149.819 19.6535 150.184 11.884C149.984 9.63614 149.048 7.76763 148.12 5.78438ZM44.2297 6.7668C50.9928 5.95464 53.1154 12.033 53.467 17.633C53.7633 22.3427 53.3522 32.7701 51.3742 36.9299C48.8126 42.3159 40.1709 44.9544 36.3713 39.5891C30.8509 31.7985 32.096 8.22318 44.2326 6.7668H44.2297ZM128.589 2.79512C130.599 2.76523 132.621 3.03292 134.611 3.32051C136.279 3.56212 140.176 4.08186 141.569 4.63399C141.791 4.72141 142.005 4.74237 142.143 4.98164C141.589 5.88563 141.012 6.28831 141.022 7.48457C143.268 17.1984 143.974 27.7868 146.574 37.3557C146.793 38.1565 148.09 40.8912 147.443 41.3469C146.795 41.8024 139.388 39.9213 138.01 39.8361V39.8312C137.801 39.5414 139.013 38.3011 139.204 37.926C139.992 36.3845 140.463 31.4386 138.341 31.1047L131.837 30.4328C130.962 33.2557 131.325 36.1088 132.034 38.9133L123.075 37.5324C123.222 36.4928 124.164 36.051 124.655 35.092C128.072 28.429 127.546 15.1693 129.938 7.71016C130.112 5.65787 130.098 4.30903 128.589 2.79512ZM77.591 0.950392C77.2188 2.10532 76.3824 2.8323 75.9757 4.04707C75.6197 5.10542 75.3631 6.61515 75.2873 7.72871C74.7084 16.2161 75.8246 25.2142 75.5168 33.7453C75.7672 36.711 77.5174 36.8813 73.3088 37.5002C72.4495 37.6268 70.8306 37.9924 70.2287 37.4289L63.006 21.6623C62.6729 21.8809 62.6886 22.104 62.6496 22.4514C62.4199 24.575 62.7304 29.5968 62.9211 31.8654C63.1117 34.1248 63.7939 36.313 65.1838 38.1076L53.4718 39.9416C55.2683 37.3601 56.0399 34.8218 56.2375 31.6721C56.6027 25.9155 56.6655 16.9036 56.2267 11.1887C56.1371 10.0361 55.7989 8.31332 55.3166 7.26875C54.8686 6.3002 54.1913 5.84862 53.7043 4.97676C53.8078 4.5327 60.2809 3.17036 61.2482 3.28535C63.4421 8.33095 65.3692 13.5521 67.7492 18.5148C67.871 18.768 68.3255 19.7898 68.5187 19.8098C69.0884 19.8581 68.6339 19.0504 68.6339 19.009C68.634 15.413 68.9968 10.7198 68.6339 7.27559L68.632 7.27754C68.5677 6.67474 68.2277 5.52641 67.9865 4.93281C67.619 4.03339 66.8584 3.44689 66.5666 2.56367L77.591 0.950392ZM109.291 0.950392L107.716 2.70625C106.547 6.48625 107.141 10.6043 106.994 14.5246L114.309 14.718C114.343 14.5524 114.577 14.2628 114.577 14.1799V4.74629C114.577 3.90391 112.565 1.10938 112.739 0.952345L122.62 1.98848C121.77 3.28134 120.784 4.46199 120.771 6.11836C121.299 14.792 120.095 24.2409 120.771 32.8225C120.906 34.5365 121.529 35.7609 122.156 37.3L112.278 36.6096C112.837 35.8847 114.575 34.1876 114.575 33.2766V21.3117L114.231 20.967H107.798C107.683 20.9663 107.316 20.6034 106.994 20.7365C107.236 24.0174 106.668 27.7501 106.994 30.9758H106.996C107.203 33.0164 108.042 34.9629 109.524 36.3801H99.1877C99.8309 35.0019 100.628 34.2052 100.791 32.5832C101.409 26.4195 100.711 18.4981 100.784 12.0998C100.791 11.5569 101.025 11.0532 101.032 10.508C101.085 6.92121 101.559 3.53895 98.9562 0.722853L109.291 0.950392ZM83.3644 0.855665C87.187 -1.21937 91.3059 1.26727 95.2824 0.0226572L95.2804 0.0304697C95.331 2.21376 95.2211 4.41129 95.2716 6.59688C95.2834 7.12175 95.7578 8.64112 95.2599 8.97969C94.6098 9.42144 92.1492 6.86066 91.3566 6.3752C87.6328 4.0953 85.051 7.18817 86.9738 10.7658C89.919 16.2481 96.3306 16.2737 97.091 24.5607C97.8858 33.2484 93.863 37.3733 85.2804 36.8488C84.6075 36.8074 80.3804 36.2373 80.1164 36.0393C79.6845 35.7126 79.9347 33.3042 79.8888 32.5861C79.751 30.4051 79.4287 28.2214 79.8927 26.0266C80.1041 25.7689 83.7728 28.9547 84.1798 29.2082C86.1601 30.4414 89.1332 30.9589 90.1095 28.3176C92.1281 22.8628 84.083 20.1021 81.4045 16.5705C78.2824 12.4521 78.4 3.54987 83.3644 0.855665ZM46.7433 15.3947C46.2357 13.8073 45.2269 13.0774 43.5295 13.427C42.3992 13.6593 41.4321 14.9256 40.9543 15.9104C39.1992 19.525 39.1784 30.0388 40.8966 33.674C42.1418 36.3107 44.6529 36.0553 45.9279 33.5451C47.506 30.4363 47.8 18.7034 46.7433 15.3947ZM132.744 24.2688C132.99 25.0234 137.213 25.1473 138.098 25.3176L138.38 24.8645C137.261 20.7415 136.993 16.3098 136.111 12.173C136.016 11.7313 135.99 11.0188 135.487 10.8439H135.486L132.744 24.2688ZM156.618 24.7629L156.963 25.1086H160.408C161.454 25.1086 162.331 23.2812 162.487 22.3586C163.273 17.755 161.341 14.0122 156.618 13.1447V24.7629Z" fill="white"/>
</svg>
